<svg width="41" height="38" viewBox="0 0 41 38" fill="none" xmlns="http://www.w3.org/2000/svg">
<g id="&#240;&#159;&#166;&#134; icon &#34;Lock (line)&#34;">
<g id="Group">
<path id="Vector" d="M6.23179 15.2222H34.7963C37.1238 15.2222 39.0281 16.5822 39.0281 18.2445V31.4667C39.0281 33.96 36.1717 36 32.6804 36H8.34768C4.85646 36 2 33.96 2 31.4667V18.2445C2 16.5822 3.9043 15.2222 6.23179 15.2222Z" stroke="black" stroke-width="3" stroke-miterlimit="10"/>
<path id="Vector_2" d="M9.93457 15.2222V9.55555C9.93457 5.38111 14.6689 2 20.514 2C26.3592 2 31.0935 5.38111 31.0935 9.55555V15.2222" stroke="black" stroke-width="3" stroke-miterlimit="10" stroke-linecap="round"/>
<path id="Vector_3" d="M20.5135 24.6667C21.215 24.6667 21.8877 24.4677 22.3837 24.1135C22.8797 23.7592 23.1584 23.2788 23.1584 22.7778C23.1584 22.2768 22.8797 21.7964 22.3837 21.4422C21.8877 21.0879 21.215 20.8889 20.5135 20.8889C19.8121 20.8889 19.1393 21.0879 18.6433 21.4422C18.1473 21.7964 17.8687 22.2768 17.8687 22.7778C17.8687 23.2788 18.1473 23.7592 18.6433 24.1135C19.1393 24.4677 19.8121 24.6667 20.5135 24.6667Z" stroke="black" stroke-width="3" stroke-miterlimit="10"/>
<path id="Vector_4" d="M20.5137 30.3333V24.6666" stroke="black" stroke-width="3" stroke-miterlimit="10" stroke-linecap="round"/>
</g>
</g>
</svg>
